<mxfile host="app.diagrams.net" modified="2024-03-06T16:39:51.495Z" agent="Mozilla/5.0 (Windows NT 10.0; Win64; x64) AppleWebKit/537.36 (KHTML, like Gecko) Chrome/122.0.0.0 Safari/537.36" etag="NxANKcK3DyDc6tG0BfI-" version="24.0.2" type="device" pages="3">
  <diagram name="Page-1" id="_kaCYD7MajMOmbH1o6p7">
    <mxGraphModel dx="880" dy="468" grid="1" gridSize="10" guides="1" tooltips="1" connect="1" arrows="1" fold="1" page="1" pageScale="1" pageWidth="850" pageHeight="1100" math="0" shadow="0">
      <root>
        <mxCell id="0" />
        <mxCell id="1" parent="0" />
        <mxCell id="pGVP8Jg6VmnMZ_iT_BV1-20" value="" style="endArrow=classic;html=1;rounded=0;" parent="1" edge="1">
          <mxGeometry width="50" height="50" relative="1" as="geometry">
            <mxPoint x="480" y="270" as="sourcePoint" />
            <mxPoint x="590" y="270" as="targetPoint" />
          </mxGeometry>
        </mxCell>
        <mxCell id="v0E23E_qQsLnRw0lNabB-5" style="edgeStyle=orthogonalEdgeStyle;rounded=0;orthogonalLoop=1;jettySize=auto;html=1;exitX=0;exitY=0.5;exitDx=0;exitDy=0;entryX=1;entryY=0.5;entryDx=0;entryDy=0;" parent="1" source="v0E23E_qQsLnRw0lNabB-1" target="v0E23E_qQsLnRw0lNabB-2" edge="1">
          <mxGeometry relative="1" as="geometry">
            <mxPoint x="290" y="250" as="targetPoint" />
          </mxGeometry>
        </mxCell>
        <mxCell id="v0E23E_qQsLnRw0lNabB-6" style="edgeStyle=orthogonalEdgeStyle;rounded=0;orthogonalLoop=1;jettySize=auto;html=1;exitX=1;exitY=0.5;exitDx=0;exitDy=0;entryX=0;entryY=0.5;entryDx=0;entryDy=0;" parent="1" source="v0E23E_qQsLnRw0lNabB-1" target="v0E23E_qQsLnRw0lNabB-3" edge="1">
          <mxGeometry relative="1" as="geometry" />
        </mxCell>
        <mxCell id="v0E23E_qQsLnRw0lNabB-1" value="Flipkart" style="ellipse;whiteSpace=wrap;html=1;aspect=fixed;" parent="1" vertex="1">
          <mxGeometry x="380" y="80" width="80" height="80" as="geometry" />
        </mxCell>
        <mxCell id="v0E23E_qQsLnRw0lNabB-10" style="edgeStyle=orthogonalEdgeStyle;rounded=0;orthogonalLoop=1;jettySize=auto;html=1;exitX=1;exitY=0.5;exitDx=0;exitDy=0;entryX=0;entryY=0.5;entryDx=0;entryDy=0;" parent="1" source="v0E23E_qQsLnRw0lNabB-2" target="v0E23E_qQsLnRw0lNabB-1" edge="1">
          <mxGeometry relative="1" as="geometry" />
        </mxCell>
        <mxCell id="v0E23E_qQsLnRw0lNabB-2" value="customer" style="rounded=0;whiteSpace=wrap;html=1;" parent="1" vertex="1">
          <mxGeometry x="130" y="90" width="120" height="60" as="geometry" />
        </mxCell>
        <mxCell id="v0E23E_qQsLnRw0lNabB-7" style="edgeStyle=orthogonalEdgeStyle;rounded=0;orthogonalLoop=1;jettySize=auto;html=1;entryX=1;entryY=0.5;entryDx=0;entryDy=0;" parent="1" source="v0E23E_qQsLnRw0lNabB-3" target="v0E23E_qQsLnRw0lNabB-1" edge="1">
          <mxGeometry relative="1" as="geometry" />
        </mxCell>
        <mxCell id="v0E23E_qQsLnRw0lNabB-3" value="admin" style="rounded=0;whiteSpace=wrap;html=1;" parent="1" vertex="1">
          <mxGeometry x="590" y="90" width="120" height="60" as="geometry" />
        </mxCell>
        <mxCell id="v0E23E_qQsLnRw0lNabB-20" style="edgeStyle=orthogonalEdgeStyle;rounded=0;orthogonalLoop=1;jettySize=auto;html=1;entryX=1;entryY=0.5;entryDx=0;entryDy=0;" parent="1" source="v0E23E_qQsLnRw0lNabB-11" target="v0E23E_qQsLnRw0lNabB-12" edge="1">
          <mxGeometry relative="1" as="geometry" />
        </mxCell>
        <mxCell id="v0E23E_qQsLnRw0lNabB-23" style="edgeStyle=orthogonalEdgeStyle;rounded=0;orthogonalLoop=1;jettySize=auto;html=1;exitX=0.5;exitY=1;exitDx=0;exitDy=0;entryX=0.5;entryY=0;entryDx=0;entryDy=0;" parent="1" source="v0E23E_qQsLnRw0lNabB-11" target="v0E23E_qQsLnRw0lNabB-13" edge="1">
          <mxGeometry relative="1" as="geometry" />
        </mxCell>
        <mxCell id="v0E23E_qQsLnRw0lNabB-11" value="search item" style="ellipse;whiteSpace=wrap;html=1;aspect=fixed;" parent="1" vertex="1">
          <mxGeometry x="380" y="240" width="80" height="80" as="geometry" />
        </mxCell>
        <mxCell id="v0E23E_qQsLnRw0lNabB-19" style="edgeStyle=orthogonalEdgeStyle;rounded=0;orthogonalLoop=1;jettySize=auto;html=1;exitX=1;exitY=0.5;exitDx=0;exitDy=0;entryX=0;entryY=0.5;entryDx=0;entryDy=0;" parent="1" source="v0E23E_qQsLnRw0lNabB-12" target="v0E23E_qQsLnRw0lNabB-11" edge="1">
          <mxGeometry relative="1" as="geometry" />
        </mxCell>
        <mxCell id="v0E23E_qQsLnRw0lNabB-12" value="customer" style="rounded=0;whiteSpace=wrap;html=1;" parent="1" vertex="1">
          <mxGeometry x="120" y="250" width="120" height="60" as="geometry" />
        </mxCell>
        <mxCell id="v0E23E_qQsLnRw0lNabB-24" style="edgeStyle=orthogonalEdgeStyle;rounded=0;orthogonalLoop=1;jettySize=auto;html=1;exitX=0.5;exitY=1;exitDx=0;exitDy=0;entryX=0.5;entryY=0;entryDx=0;entryDy=0;" parent="1" source="v0E23E_qQsLnRw0lNabB-13" target="v0E23E_qQsLnRw0lNabB-14" edge="1">
          <mxGeometry relative="1" as="geometry" />
        </mxCell>
        <mxCell id="v0E23E_qQsLnRw0lNabB-13" value="registration" style="ellipse;whiteSpace=wrap;html=1;aspect=fixed;" parent="1" vertex="1">
          <mxGeometry x="380" y="350" width="80" height="80" as="geometry" />
        </mxCell>
        <mxCell id="v0E23E_qQsLnRw0lNabB-30" style="edgeStyle=orthogonalEdgeStyle;rounded=0;orthogonalLoop=1;jettySize=auto;html=1;exitX=0.5;exitY=1;exitDx=0;exitDy=0;entryX=0.5;entryY=0;entryDx=0;entryDy=0;" parent="1" source="v0E23E_qQsLnRw0lNabB-14" target="v0E23E_qQsLnRw0lNabB-16" edge="1">
          <mxGeometry relative="1" as="geometry" />
        </mxCell>
        <mxCell id="v0E23E_qQsLnRw0lNabB-14" value="login" style="ellipse;whiteSpace=wrap;html=1;aspect=fixed;" parent="1" vertex="1">
          <mxGeometry x="380" y="470" width="80" height="80" as="geometry" />
        </mxCell>
        <mxCell id="v0E23E_qQsLnRw0lNabB-32" style="edgeStyle=orthogonalEdgeStyle;rounded=0;orthogonalLoop=1;jettySize=auto;html=1;exitX=0.5;exitY=1;exitDx=0;exitDy=0;entryX=0.5;entryY=0;entryDx=0;entryDy=0;" parent="1" source="v0E23E_qQsLnRw0lNabB-15" target="v0E23E_qQsLnRw0lNabB-18" edge="1">
          <mxGeometry relative="1" as="geometry" />
        </mxCell>
        <mxCell id="v0E23E_qQsLnRw0lNabB-39" style="edgeStyle=orthogonalEdgeStyle;rounded=0;orthogonalLoop=1;jettySize=auto;html=1;exitX=0;exitY=0.5;exitDx=0;exitDy=0;entryX=0.25;entryY=1;entryDx=0;entryDy=0;" parent="1" source="v0E23E_qQsLnRw0lNabB-15" target="v0E23E_qQsLnRw0lNabB-12" edge="1">
          <mxGeometry relative="1" as="geometry">
            <mxPoint x="160" y="710" as="targetPoint" />
          </mxGeometry>
        </mxCell>
        <mxCell id="v0E23E_qQsLnRw0lNabB-15" value="make order" style="ellipse;whiteSpace=wrap;html=1;aspect=fixed;" parent="1" vertex="1">
          <mxGeometry x="385" y="690" width="80" height="80" as="geometry" />
        </mxCell>
        <mxCell id="v0E23E_qQsLnRw0lNabB-31" style="edgeStyle=orthogonalEdgeStyle;rounded=0;orthogonalLoop=1;jettySize=auto;html=1;exitX=0.5;exitY=1;exitDx=0;exitDy=0;entryX=0.5;entryY=0;entryDx=0;entryDy=0;" parent="1" source="v0E23E_qQsLnRw0lNabB-16" target="v0E23E_qQsLnRw0lNabB-15" edge="1">
          <mxGeometry relative="1" as="geometry" />
        </mxCell>
        <mxCell id="v0E23E_qQsLnRw0lNabB-40" style="edgeStyle=orthogonalEdgeStyle;rounded=0;orthogonalLoop=1;jettySize=auto;html=1;exitX=0;exitY=0.5;exitDx=0;exitDy=0;entryX=0.5;entryY=1;entryDx=0;entryDy=0;" parent="1" source="v0E23E_qQsLnRw0lNabB-16" target="v0E23E_qQsLnRw0lNabB-12" edge="1">
          <mxGeometry relative="1" as="geometry">
            <mxPoint x="190" y="600" as="targetPoint" />
          </mxGeometry>
        </mxCell>
        <mxCell id="v0E23E_qQsLnRw0lNabB-16" value="buy item" style="ellipse;whiteSpace=wrap;html=1;aspect=fixed;" parent="1" vertex="1">
          <mxGeometry x="385" y="580" width="80" height="80" as="geometry" />
        </mxCell>
        <mxCell id="v0E23E_qQsLnRw0lNabB-18" value="make payment" style="ellipse;whiteSpace=wrap;html=1;aspect=fixed;" parent="1" vertex="1">
          <mxGeometry x="385" y="800" width="80" height="80" as="geometry" />
        </mxCell>
        <mxCell id="v0E23E_qQsLnRw0lNabB-33" style="edgeStyle=orthogonalEdgeStyle;rounded=0;orthogonalLoop=1;jettySize=auto;html=1;exitX=0;exitY=0.5;exitDx=0;exitDy=0;entryX=0.9;entryY=1.05;entryDx=0;entryDy=0;entryPerimeter=0;" parent="1" source="v0E23E_qQsLnRw0lNabB-13" target="v0E23E_qQsLnRw0lNabB-12" edge="1">
          <mxGeometry relative="1" as="geometry" />
        </mxCell>
        <mxCell id="v0E23E_qQsLnRw0lNabB-34" style="edgeStyle=orthogonalEdgeStyle;rounded=0;orthogonalLoop=1;jettySize=auto;html=1;exitX=0;exitY=0.5;exitDx=0;exitDy=0;entryX=0.692;entryY=1.033;entryDx=0;entryDy=0;entryPerimeter=0;" parent="1" source="v0E23E_qQsLnRw0lNabB-14" target="v0E23E_qQsLnRw0lNabB-12" edge="1">
          <mxGeometry relative="1" as="geometry" />
        </mxCell>
        <mxCell id="v0E23E_qQsLnRw0lNabB-41" style="edgeStyle=orthogonalEdgeStyle;rounded=0;orthogonalLoop=1;jettySize=auto;html=1;exitX=0;exitY=0.5;exitDx=0;exitDy=0;entryX=0.081;entryY=1.023;entryDx=0;entryDy=0;entryPerimeter=0;" parent="1" source="v0E23E_qQsLnRw0lNabB-18" target="v0E23E_qQsLnRw0lNabB-12" edge="1">
          <mxGeometry relative="1" as="geometry" />
        </mxCell>
        <mxCell id="v0E23E_qQsLnRw0lNabB-45" value="" style="endArrow=none;html=1;rounded=0;" parent="1" edge="1">
          <mxGeometry width="50" height="50" relative="1" as="geometry">
            <mxPoint x="610" y="300" as="sourcePoint" />
            <mxPoint x="790" y="300" as="targetPoint" />
          </mxGeometry>
        </mxCell>
        <mxCell id="v0E23E_qQsLnRw0lNabB-48" value="" style="endArrow=none;html=1;rounded=0;" parent="1" edge="1">
          <mxGeometry width="50" height="50" relative="1" as="geometry">
            <mxPoint x="610" y="260" as="sourcePoint" />
            <mxPoint x="790" y="260" as="targetPoint" />
          </mxGeometry>
        </mxCell>
        <mxCell id="v0E23E_qQsLnRw0lNabB-49" value="itemmst" style="text;html=1;align=center;verticalAlign=middle;resizable=0;points=[];autosize=1;strokeColor=none;fillColor=none;" parent="1" vertex="1">
          <mxGeometry x="655" y="258" width="70" height="30" as="geometry" />
        </mxCell>
        <mxCell id="v0E23E_qQsLnRw0lNabB-50" value="" style="endArrow=none;html=1;rounded=0;" parent="1" edge="1">
          <mxGeometry width="50" height="50" relative="1" as="geometry">
            <mxPoint x="610" y="420" as="sourcePoint" />
            <mxPoint x="790" y="420" as="targetPoint" />
          </mxGeometry>
        </mxCell>
        <mxCell id="v0E23E_qQsLnRw0lNabB-51" value="" style="endArrow=none;html=1;rounded=0;" parent="1" edge="1">
          <mxGeometry width="50" height="50" relative="1" as="geometry">
            <mxPoint x="610" y="380" as="sourcePoint" />
            <mxPoint x="790" y="380" as="targetPoint" />
          </mxGeometry>
        </mxCell>
        <mxCell id="pGVP8Jg6VmnMZ_iT_BV1-1" value="" style="endArrow=none;html=1;rounded=0;" parent="1" edge="1">
          <mxGeometry width="50" height="50" relative="1" as="geometry">
            <mxPoint x="610" y="750" as="sourcePoint" />
            <mxPoint x="790" y="750" as="targetPoint" />
          </mxGeometry>
        </mxCell>
        <mxCell id="pGVP8Jg6VmnMZ_iT_BV1-2" value="" style="endArrow=none;html=1;rounded=0;" parent="1" edge="1">
          <mxGeometry width="50" height="50" relative="1" as="geometry">
            <mxPoint x="610" y="640" as="sourcePoint" />
            <mxPoint x="790" y="640" as="targetPoint" />
          </mxGeometry>
        </mxCell>
        <mxCell id="pGVP8Jg6VmnMZ_iT_BV1-3" value="" style="endArrow=none;html=1;rounded=0;" parent="1" edge="1">
          <mxGeometry width="50" height="50" relative="1" as="geometry">
            <mxPoint x="610" y="710" as="sourcePoint" />
            <mxPoint x="790" y="710" as="targetPoint" />
            <Array as="points" />
          </mxGeometry>
        </mxCell>
        <mxCell id="pGVP8Jg6VmnMZ_iT_BV1-4" value="" style="endArrow=none;html=1;rounded=0;" parent="1" edge="1">
          <mxGeometry width="50" height="50" relative="1" as="geometry">
            <mxPoint x="610" y="540" as="sourcePoint" />
            <mxPoint x="790" y="540" as="targetPoint" />
          </mxGeometry>
        </mxCell>
        <mxCell id="pGVP8Jg6VmnMZ_iT_BV1-5" value="" style="endArrow=none;html=1;rounded=0;" parent="1" edge="1">
          <mxGeometry width="50" height="50" relative="1" as="geometry">
            <mxPoint x="610" y="600" as="sourcePoint" />
            <mxPoint x="790" y="600" as="targetPoint" />
          </mxGeometry>
        </mxCell>
        <mxCell id="pGVP8Jg6VmnMZ_iT_BV1-7" value="" style="endArrow=none;html=1;rounded=0;" parent="1" edge="1">
          <mxGeometry width="50" height="50" relative="1" as="geometry">
            <mxPoint x="610" y="500" as="sourcePoint" />
            <mxPoint x="790" y="500" as="targetPoint" />
          </mxGeometry>
        </mxCell>
        <mxCell id="pGVP8Jg6VmnMZ_iT_BV1-10" value="" style="endArrow=none;html=1;rounded=0;" parent="1" edge="1">
          <mxGeometry width="50" height="50" relative="1" as="geometry">
            <mxPoint x="610" y="820" as="sourcePoint" />
            <mxPoint x="790" y="820" as="targetPoint" />
            <Array as="points" />
          </mxGeometry>
        </mxCell>
        <mxCell id="pGVP8Jg6VmnMZ_iT_BV1-11" value="" style="endArrow=none;html=1;rounded=0;" parent="1" edge="1">
          <mxGeometry width="50" height="50" relative="1" as="geometry">
            <mxPoint x="610" y="860" as="sourcePoint" />
            <mxPoint x="790" y="860" as="targetPoint" />
            <Array as="points" />
          </mxGeometry>
        </mxCell>
        <mxCell id="pGVP8Jg6VmnMZ_iT_BV1-12" value="itemmst" style="text;html=1;align=center;verticalAlign=middle;resizable=0;points=[];autosize=1;strokeColor=none;fillColor=none;" parent="1" vertex="1">
          <mxGeometry x="645" y="708" width="70" height="30" as="geometry" />
        </mxCell>
        <mxCell id="pGVP8Jg6VmnMZ_iT_BV1-13" value="ordermst" style="text;html=1;align=center;verticalAlign=middle;resizable=0;points=[];autosize=1;strokeColor=none;fillColor=none;" parent="1" vertex="1">
          <mxGeometry x="645" y="818" width="70" height="30" as="geometry" />
        </mxCell>
        <mxCell id="pGVP8Jg6VmnMZ_iT_BV1-14" value="usermst" style="text;html=1;align=center;verticalAlign=middle;resizable=0;points=[];autosize=1;strokeColor=none;fillColor=none;" parent="1" vertex="1">
          <mxGeometry x="645" y="598" width="70" height="30" as="geometry" />
        </mxCell>
        <mxCell id="pGVP8Jg6VmnMZ_iT_BV1-15" value="usermst" style="text;html=1;align=center;verticalAlign=middle;resizable=0;points=[];autosize=1;strokeColor=none;fillColor=none;" parent="1" vertex="1">
          <mxGeometry x="645" y="498" width="70" height="30" as="geometry" />
        </mxCell>
        <mxCell id="pGVP8Jg6VmnMZ_iT_BV1-16" value="usermst" style="text;html=1;align=center;verticalAlign=middle;resizable=0;points=[];autosize=1;strokeColor=none;fillColor=none;" parent="1" vertex="1">
          <mxGeometry x="645" y="388" width="70" height="30" as="geometry" />
        </mxCell>
        <mxCell id="pGVP8Jg6VmnMZ_iT_BV1-21" value="" style="endArrow=classic;html=1;rounded=0;" parent="1" edge="1">
          <mxGeometry width="50" height="50" relative="1" as="geometry">
            <mxPoint x="480" y="722.5" as="sourcePoint" />
            <mxPoint x="590" y="722.5" as="targetPoint" />
          </mxGeometry>
        </mxCell>
        <mxCell id="pGVP8Jg6VmnMZ_iT_BV1-22" value="" style="endArrow=classic;html=1;rounded=0;" parent="1" edge="1">
          <mxGeometry width="50" height="50" relative="1" as="geometry">
            <mxPoint x="480" y="832.5" as="sourcePoint" />
            <mxPoint x="590" y="832.5" as="targetPoint" />
          </mxGeometry>
        </mxCell>
        <mxCell id="pGVP8Jg6VmnMZ_iT_BV1-23" value="" style="endArrow=classic;html=1;rounded=0;" parent="1" edge="1">
          <mxGeometry width="50" height="50" relative="1" as="geometry">
            <mxPoint x="480" y="612.5" as="sourcePoint" />
            <mxPoint x="590" y="612.5" as="targetPoint" />
          </mxGeometry>
        </mxCell>
        <mxCell id="pGVP8Jg6VmnMZ_iT_BV1-24" value="" style="endArrow=classic;html=1;rounded=0;" parent="1" edge="1">
          <mxGeometry width="50" height="50" relative="1" as="geometry">
            <mxPoint x="480" y="509.5" as="sourcePoint" />
            <mxPoint x="590" y="509.5" as="targetPoint" />
          </mxGeometry>
        </mxCell>
        <mxCell id="pGVP8Jg6VmnMZ_iT_BV1-25" value="" style="endArrow=classic;html=1;rounded=0;" parent="1" edge="1">
          <mxGeometry width="50" height="50" relative="1" as="geometry">
            <mxPoint x="480" y="389.5" as="sourcePoint" />
            <mxPoint x="590" y="389.5" as="targetPoint" />
            <Array as="points">
              <mxPoint x="530" y="389.5" />
            </Array>
          </mxGeometry>
        </mxCell>
        <mxCell id="pGVP8Jg6VmnMZ_iT_BV1-26" value="" style="endArrow=classic;html=1;rounded=0;" parent="1" edge="1">
          <mxGeometry width="50" height="50" relative="1" as="geometry">
            <mxPoint x="590" y="410" as="sourcePoint" />
            <mxPoint x="480" y="410" as="targetPoint" />
          </mxGeometry>
        </mxCell>
        <mxCell id="pGVP8Jg6VmnMZ_iT_BV1-27" value="" style="endArrow=classic;html=1;rounded=0;" parent="1" edge="1">
          <mxGeometry width="50" height="50" relative="1" as="geometry">
            <mxPoint x="590" y="288" as="sourcePoint" />
            <mxPoint x="480" y="288" as="targetPoint" />
          </mxGeometry>
        </mxCell>
        <mxCell id="pGVP8Jg6VmnMZ_iT_BV1-28" value="" style="endArrow=classic;html=1;rounded=0;" parent="1" edge="1">
          <mxGeometry width="50" height="50" relative="1" as="geometry">
            <mxPoint x="590" y="528" as="sourcePoint" />
            <mxPoint x="480" y="528" as="targetPoint" />
          </mxGeometry>
        </mxCell>
        <mxCell id="pGVP8Jg6VmnMZ_iT_BV1-29" value="" style="endArrow=classic;html=1;rounded=0;" parent="1" edge="1">
          <mxGeometry width="50" height="50" relative="1" as="geometry">
            <mxPoint x="590" y="628" as="sourcePoint" />
            <mxPoint x="480" y="628" as="targetPoint" />
          </mxGeometry>
        </mxCell>
        <mxCell id="pGVP8Jg6VmnMZ_iT_BV1-30" value="" style="endArrow=classic;html=1;rounded=0;" parent="1" edge="1">
          <mxGeometry width="50" height="50" relative="1" as="geometry">
            <mxPoint x="590" y="738" as="sourcePoint" />
            <mxPoint x="480" y="738" as="targetPoint" />
          </mxGeometry>
        </mxCell>
        <mxCell id="pGVP8Jg6VmnMZ_iT_BV1-32" value="" style="endArrow=classic;html=1;rounded=0;" parent="1" edge="1">
          <mxGeometry width="50" height="50" relative="1" as="geometry">
            <mxPoint x="590" y="848" as="sourcePoint" />
            <mxPoint x="480" y="848" as="targetPoint" />
          </mxGeometry>
        </mxCell>
        <mxCell id="gDBt3dLaqRodZmH81SCf-1" value="request for login" style="text;html=1;align=center;verticalAlign=middle;resizable=0;points=[];autosize=1;strokeColor=none;fillColor=none;" vertex="1" parent="1">
          <mxGeometry x="245" y="88" width="110" height="30" as="geometry" />
        </mxCell>
        <mxCell id="gDBt3dLaqRodZmH81SCf-2" value="bill" style="text;html=1;align=center;verticalAlign=middle;resizable=0;points=[];autosize=1;strokeColor=none;fillColor=none;" vertex="1" parent="1">
          <mxGeometry x="295" y="120" width="40" height="30" as="geometry" />
        </mxCell>
        <mxCell id="gDBt3dLaqRodZmH81SCf-3" value="generate bill" style="text;html=1;align=center;verticalAlign=middle;resizable=0;points=[];autosize=1;strokeColor=none;fillColor=none;" vertex="1" parent="1">
          <mxGeometry x="480" y="120" width="90" height="30" as="geometry" />
        </mxCell>
        <mxCell id="gDBt3dLaqRodZmH81SCf-4" value="request for registration" style="text;html=1;align=center;verticalAlign=middle;resizable=0;points=[];autosize=1;strokeColor=none;fillColor=none;" vertex="1" parent="1">
          <mxGeometry x="430" y="88" width="140" height="30" as="geometry" />
        </mxCell>
      </root>
    </mxGraphModel>
  </diagram>
  <diagram id="P85-ZWgZq4PcSq3xUz_H" name="Page-2">
    <mxGraphModel dx="880" dy="468" grid="1" gridSize="10" guides="1" tooltips="1" connect="1" arrows="1" fold="1" page="1" pageScale="1" pageWidth="850" pageHeight="1100" math="0" shadow="0">
      <root>
        <mxCell id="0" />
        <mxCell id="1" parent="0" />
        <mxCell id="-LEzGcHCE9Q_DhHC3iWU-11" style="edgeStyle=orthogonalEdgeStyle;rounded=0;orthogonalLoop=1;jettySize=auto;html=1;exitX=1;exitY=0.5;exitDx=0;exitDy=0;entryX=0;entryY=0.5;entryDx=0;entryDy=0;" parent="1" source="-LEzGcHCE9Q_DhHC3iWU-1" target="-LEzGcHCE9Q_DhHC3iWU-2" edge="1">
          <mxGeometry relative="1" as="geometry" />
        </mxCell>
        <mxCell id="-LEzGcHCE9Q_DhHC3iWU-1" value="customer" style="rounded=0;whiteSpace=wrap;html=1;" parent="1" vertex="1">
          <mxGeometry x="40" y="80" width="120" height="60" as="geometry" />
        </mxCell>
        <mxCell id="-LEzGcHCE9Q_DhHC3iWU-10" style="edgeStyle=orthogonalEdgeStyle;rounded=0;orthogonalLoop=1;jettySize=auto;html=1;exitX=0;exitY=0.5;exitDx=0;exitDy=0;entryX=1;entryY=0.5;entryDx=0;entryDy=0;" parent="1" source="-LEzGcHCE9Q_DhHC3iWU-2" target="-LEzGcHCE9Q_DhHC3iWU-1" edge="1">
          <mxGeometry relative="1" as="geometry" />
        </mxCell>
        <mxCell id="-LEzGcHCE9Q_DhHC3iWU-12" style="edgeStyle=orthogonalEdgeStyle;rounded=0;orthogonalLoop=1;jettySize=auto;html=1;exitX=0.5;exitY=1;exitDx=0;exitDy=0;entryX=0.5;entryY=0;entryDx=0;entryDy=0;" parent="1" source="-LEzGcHCE9Q_DhHC3iWU-2" target="-LEzGcHCE9Q_DhHC3iWU-7" edge="1">
          <mxGeometry relative="1" as="geometry">
            <mxPoint x="320" y="170" as="targetPoint" />
          </mxGeometry>
        </mxCell>
        <mxCell id="-LEzGcHCE9Q_DhHC3iWU-2" value="login" style="ellipse;whiteSpace=wrap;html=1;aspect=fixed;" parent="1" vertex="1">
          <mxGeometry x="280" y="70" width="80" height="80" as="geometry" />
        </mxCell>
        <mxCell id="-LEzGcHCE9Q_DhHC3iWU-13" style="edgeStyle=orthogonalEdgeStyle;rounded=0;orthogonalLoop=1;jettySize=auto;html=1;exitX=0.5;exitY=1;exitDx=0;exitDy=0;entryX=0.5;entryY=0;entryDx=0;entryDy=0;" parent="1" source="-LEzGcHCE9Q_DhHC3iWU-7" target="-LEzGcHCE9Q_DhHC3iWU-9" edge="1">
          <mxGeometry relative="1" as="geometry" />
        </mxCell>
        <mxCell id="-LEzGcHCE9Q_DhHC3iWU-7" value="view account" style="ellipse;whiteSpace=wrap;html=1;aspect=fixed;" parent="1" vertex="1">
          <mxGeometry x="280" y="180" width="80" height="80" as="geometry" />
        </mxCell>
        <mxCell id="-LEzGcHCE9Q_DhHC3iWU-8" value="edit account" style="ellipse;whiteSpace=wrap;html=1;aspect=fixed;" parent="1" vertex="1">
          <mxGeometry x="280" y="420" width="80" height="80" as="geometry" />
        </mxCell>
        <mxCell id="-LEzGcHCE9Q_DhHC3iWU-14" style="edgeStyle=orthogonalEdgeStyle;rounded=0;orthogonalLoop=1;jettySize=auto;html=1;exitX=0.5;exitY=1;exitDx=0;exitDy=0;entryX=0.5;entryY=0;entryDx=0;entryDy=0;" parent="1" source="-LEzGcHCE9Q_DhHC3iWU-9" target="-LEzGcHCE9Q_DhHC3iWU-8" edge="1">
          <mxGeometry relative="1" as="geometry" />
        </mxCell>
        <mxCell id="-LEzGcHCE9Q_DhHC3iWU-9" value="change password" style="ellipse;whiteSpace=wrap;html=1;aspect=fixed;" parent="1" vertex="1">
          <mxGeometry x="280" y="300" width="80" height="80" as="geometry" />
        </mxCell>
        <mxCell id="-LEzGcHCE9Q_DhHC3iWU-15" value="" style="endArrow=none;html=1;rounded=0;" parent="1" edge="1">
          <mxGeometry width="50" height="50" relative="1" as="geometry">
            <mxPoint x="480" y="90" as="sourcePoint" />
            <mxPoint x="560" y="90" as="targetPoint" />
          </mxGeometry>
        </mxCell>
        <mxCell id="-LEzGcHCE9Q_DhHC3iWU-16" value="" style="endArrow=none;html=1;rounded=0;" parent="1" edge="1">
          <mxGeometry width="50" height="50" relative="1" as="geometry">
            <mxPoint x="480" y="120" as="sourcePoint" />
            <mxPoint x="560" y="120" as="targetPoint" />
          </mxGeometry>
        </mxCell>
        <mxCell id="-LEzGcHCE9Q_DhHC3iWU-17" value="" style="endArrow=none;html=1;rounded=0;" parent="1" edge="1">
          <mxGeometry width="50" height="50" relative="1" as="geometry">
            <mxPoint x="480" y="210" as="sourcePoint" />
            <mxPoint x="560" y="210" as="targetPoint" />
          </mxGeometry>
        </mxCell>
        <mxCell id="-LEzGcHCE9Q_DhHC3iWU-18" value="" style="endArrow=none;html=1;rounded=0;" parent="1" edge="1">
          <mxGeometry width="50" height="50" relative="1" as="geometry">
            <mxPoint x="480" y="240" as="sourcePoint" />
            <mxPoint x="560" y="240" as="targetPoint" />
          </mxGeometry>
        </mxCell>
        <mxCell id="-LEzGcHCE9Q_DhHC3iWU-19" value="" style="endArrow=none;html=1;rounded=0;" parent="1" edge="1">
          <mxGeometry width="50" height="50" relative="1" as="geometry">
            <mxPoint x="480" y="330" as="sourcePoint" />
            <mxPoint x="560" y="330" as="targetPoint" />
          </mxGeometry>
        </mxCell>
        <mxCell id="-LEzGcHCE9Q_DhHC3iWU-20" value="" style="endArrow=none;html=1;rounded=0;" parent="1" edge="1">
          <mxGeometry width="50" height="50" relative="1" as="geometry">
            <mxPoint x="480" y="360" as="sourcePoint" />
            <mxPoint x="560" y="360" as="targetPoint" />
          </mxGeometry>
        </mxCell>
        <mxCell id="-LEzGcHCE9Q_DhHC3iWU-21" value="" style="endArrow=none;html=1;rounded=0;" parent="1" edge="1">
          <mxGeometry width="50" height="50" relative="1" as="geometry">
            <mxPoint x="480" y="470" as="sourcePoint" />
            <mxPoint x="560" y="470" as="targetPoint" />
          </mxGeometry>
        </mxCell>
        <mxCell id="-LEzGcHCE9Q_DhHC3iWU-22" value="" style="endArrow=none;html=1;rounded=0;" parent="1" edge="1">
          <mxGeometry width="50" height="50" relative="1" as="geometry">
            <mxPoint x="480" y="440" as="sourcePoint" />
            <mxPoint x="560" y="440" as="targetPoint" />
          </mxGeometry>
        </mxCell>
        <mxCell id="-LEzGcHCE9Q_DhHC3iWU-27" value="" style="endArrow=classic;html=1;rounded=0;" parent="1" edge="1">
          <mxGeometry width="50" height="50" relative="1" as="geometry">
            <mxPoint x="390" y="100" as="sourcePoint" />
            <mxPoint x="450" y="100" as="targetPoint" />
          </mxGeometry>
        </mxCell>
        <mxCell id="-LEzGcHCE9Q_DhHC3iWU-28" value="" style="endArrow=classic;html=1;rounded=0;" parent="1" edge="1">
          <mxGeometry width="50" height="50" relative="1" as="geometry">
            <mxPoint x="455" y="112.5" as="sourcePoint" />
            <mxPoint x="395" y="112.5" as="targetPoint" />
          </mxGeometry>
        </mxCell>
        <mxCell id="-LEzGcHCE9Q_DhHC3iWU-29" value="" style="endArrow=classic;html=1;rounded=0;" parent="1" edge="1">
          <mxGeometry width="50" height="50" relative="1" as="geometry">
            <mxPoint x="455" y="230" as="sourcePoint" />
            <mxPoint x="395" y="230" as="targetPoint" />
          </mxGeometry>
        </mxCell>
        <mxCell id="-LEzGcHCE9Q_DhHC3iWU-30" value="" style="endArrow=classic;html=1;rounded=0;" parent="1" edge="1">
          <mxGeometry width="50" height="50" relative="1" as="geometry">
            <mxPoint x="395" y="219.5" as="sourcePoint" />
            <mxPoint x="455" y="219.5" as="targetPoint" />
          </mxGeometry>
        </mxCell>
        <mxCell id="-LEzGcHCE9Q_DhHC3iWU-31" value="" style="endArrow=classic;html=1;rounded=0;" parent="1" edge="1">
          <mxGeometry width="50" height="50" relative="1" as="geometry">
            <mxPoint x="390" y="339.5" as="sourcePoint" />
            <mxPoint x="450" y="339.5" as="targetPoint" />
          </mxGeometry>
        </mxCell>
        <mxCell id="-LEzGcHCE9Q_DhHC3iWU-32" value="" style="endArrow=classic;html=1;rounded=0;" parent="1" edge="1">
          <mxGeometry width="50" height="50" relative="1" as="geometry">
            <mxPoint x="455" y="470" as="sourcePoint" />
            <mxPoint x="395" y="470" as="targetPoint" />
          </mxGeometry>
        </mxCell>
        <mxCell id="-LEzGcHCE9Q_DhHC3iWU-33" value="" style="endArrow=classic;html=1;rounded=0;" parent="1" edge="1">
          <mxGeometry width="50" height="50" relative="1" as="geometry">
            <mxPoint x="395" y="459.5" as="sourcePoint" />
            <mxPoint x="455" y="459.5" as="targetPoint" />
          </mxGeometry>
        </mxCell>
        <mxCell id="-LEzGcHCE9Q_DhHC3iWU-34" value="" style="endArrow=classic;html=1;rounded=0;" parent="1" edge="1">
          <mxGeometry width="50" height="50" relative="1" as="geometry">
            <mxPoint x="455" y="350" as="sourcePoint" />
            <mxPoint x="395" y="350" as="targetPoint" />
          </mxGeometry>
        </mxCell>
        <mxCell id="-LEzGcHCE9Q_DhHC3iWU-75" style="edgeStyle=orthogonalEdgeStyle;rounded=0;orthogonalLoop=1;jettySize=auto;html=1;entryX=0;entryY=0.5;entryDx=0;entryDy=0;" parent="1" source="-LEzGcHCE9Q_DhHC3iWU-36" target="-LEzGcHCE9Q_DhHC3iWU-37" edge="1">
          <mxGeometry relative="1" as="geometry" />
        </mxCell>
        <mxCell id="-LEzGcHCE9Q_DhHC3iWU-36" value="customer" style="rounded=0;whiteSpace=wrap;html=1;" parent="1" vertex="1">
          <mxGeometry x="40" y="580" width="120" height="60" as="geometry" />
        </mxCell>
        <mxCell id="-LEzGcHCE9Q_DhHC3iWU-72" style="edgeStyle=orthogonalEdgeStyle;rounded=0;orthogonalLoop=1;jettySize=auto;html=1;exitX=0.5;exitY=1;exitDx=0;exitDy=0;entryX=0.5;entryY=0;entryDx=0;entryDy=0;" parent="1" source="-LEzGcHCE9Q_DhHC3iWU-37" target="-LEzGcHCE9Q_DhHC3iWU-69" edge="1">
          <mxGeometry relative="1" as="geometry" />
        </mxCell>
        <mxCell id="-LEzGcHCE9Q_DhHC3iWU-76" style="edgeStyle=orthogonalEdgeStyle;rounded=0;orthogonalLoop=1;jettySize=auto;html=1;" parent="1" source="-LEzGcHCE9Q_DhHC3iWU-37" edge="1">
          <mxGeometry relative="1" as="geometry">
            <mxPoint x="160" y="610" as="targetPoint" />
          </mxGeometry>
        </mxCell>
        <mxCell id="-LEzGcHCE9Q_DhHC3iWU-37" value="login" style="ellipse;whiteSpace=wrap;html=1;aspect=fixed;" parent="1" vertex="1">
          <mxGeometry x="260" y="570" width="80" height="80" as="geometry" />
        </mxCell>
        <mxCell id="-LEzGcHCE9Q_DhHC3iWU-38" style="edgeStyle=orthogonalEdgeStyle;rounded=0;orthogonalLoop=1;jettySize=auto;html=1;exitX=1;exitY=0.5;exitDx=0;exitDy=0;entryX=0;entryY=0.5;entryDx=0;entryDy=0;" parent="1" source="-LEzGcHCE9Q_DhHC3iWU-39" target="-LEzGcHCE9Q_DhHC3iWU-42" edge="1">
          <mxGeometry relative="1" as="geometry" />
        </mxCell>
        <mxCell id="-LEzGcHCE9Q_DhHC3iWU-39" value="customer" style="rounded=0;whiteSpace=wrap;html=1;" parent="1" vertex="1">
          <mxGeometry x="40" y="80" width="120" height="60" as="geometry" />
        </mxCell>
        <mxCell id="-LEzGcHCE9Q_DhHC3iWU-40" style="edgeStyle=orthogonalEdgeStyle;rounded=0;orthogonalLoop=1;jettySize=auto;html=1;exitX=0;exitY=0.5;exitDx=0;exitDy=0;entryX=1;entryY=0.5;entryDx=0;entryDy=0;" parent="1" source="-LEzGcHCE9Q_DhHC3iWU-42" target="-LEzGcHCE9Q_DhHC3iWU-39" edge="1">
          <mxGeometry relative="1" as="geometry" />
        </mxCell>
        <mxCell id="-LEzGcHCE9Q_DhHC3iWU-41" style="edgeStyle=orthogonalEdgeStyle;rounded=0;orthogonalLoop=1;jettySize=auto;html=1;exitX=0.5;exitY=1;exitDx=0;exitDy=0;entryX=0.5;entryY=0;entryDx=0;entryDy=0;" parent="1" source="-LEzGcHCE9Q_DhHC3iWU-42" target="-LEzGcHCE9Q_DhHC3iWU-44" edge="1">
          <mxGeometry relative="1" as="geometry">
            <mxPoint x="320" y="170" as="targetPoint" />
          </mxGeometry>
        </mxCell>
        <mxCell id="-LEzGcHCE9Q_DhHC3iWU-42" value="login" style="ellipse;whiteSpace=wrap;html=1;aspect=fixed;" parent="1" vertex="1">
          <mxGeometry x="280" y="70" width="80" height="80" as="geometry" />
        </mxCell>
        <mxCell id="-LEzGcHCE9Q_DhHC3iWU-43" style="edgeStyle=orthogonalEdgeStyle;rounded=0;orthogonalLoop=1;jettySize=auto;html=1;exitX=0.5;exitY=1;exitDx=0;exitDy=0;entryX=0.5;entryY=0;entryDx=0;entryDy=0;" parent="1" source="-LEzGcHCE9Q_DhHC3iWU-44" target="-LEzGcHCE9Q_DhHC3iWU-47" edge="1">
          <mxGeometry relative="1" as="geometry" />
        </mxCell>
        <mxCell id="-LEzGcHCE9Q_DhHC3iWU-44" value="view account" style="ellipse;whiteSpace=wrap;html=1;aspect=fixed;" parent="1" vertex="1">
          <mxGeometry x="280" y="180" width="80" height="80" as="geometry" />
        </mxCell>
        <mxCell id="-LEzGcHCE9Q_DhHC3iWU-45" value="edit account" style="ellipse;whiteSpace=wrap;html=1;aspect=fixed;" parent="1" vertex="1">
          <mxGeometry x="280" y="420" width="80" height="80" as="geometry" />
        </mxCell>
        <mxCell id="-LEzGcHCE9Q_DhHC3iWU-46" style="edgeStyle=orthogonalEdgeStyle;rounded=0;orthogonalLoop=1;jettySize=auto;html=1;exitX=0.5;exitY=1;exitDx=0;exitDy=0;entryX=0.5;entryY=0;entryDx=0;entryDy=0;" parent="1" source="-LEzGcHCE9Q_DhHC3iWU-47" target="-LEzGcHCE9Q_DhHC3iWU-45" edge="1">
          <mxGeometry relative="1" as="geometry" />
        </mxCell>
        <mxCell id="-LEzGcHCE9Q_DhHC3iWU-47" value="change password" style="ellipse;whiteSpace=wrap;html=1;aspect=fixed;" parent="1" vertex="1">
          <mxGeometry x="280" y="300" width="80" height="80" as="geometry" />
        </mxCell>
        <mxCell id="-LEzGcHCE9Q_DhHC3iWU-48" value="" style="endArrow=none;html=1;rounded=0;" parent="1" edge="1">
          <mxGeometry width="50" height="50" relative="1" as="geometry">
            <mxPoint x="480" y="90" as="sourcePoint" />
            <mxPoint x="560" y="90" as="targetPoint" />
          </mxGeometry>
        </mxCell>
        <mxCell id="-LEzGcHCE9Q_DhHC3iWU-49" value="" style="endArrow=none;html=1;rounded=0;" parent="1" edge="1">
          <mxGeometry width="50" height="50" relative="1" as="geometry">
            <mxPoint x="480" y="120" as="sourcePoint" />
            <mxPoint x="560" y="120" as="targetPoint" />
          </mxGeometry>
        </mxCell>
        <mxCell id="-LEzGcHCE9Q_DhHC3iWU-50" value="" style="endArrow=none;html=1;rounded=0;" parent="1" edge="1">
          <mxGeometry width="50" height="50" relative="1" as="geometry">
            <mxPoint x="480" y="210" as="sourcePoint" />
            <mxPoint x="560" y="210" as="targetPoint" />
          </mxGeometry>
        </mxCell>
        <mxCell id="-LEzGcHCE9Q_DhHC3iWU-51" value="" style="endArrow=none;html=1;rounded=0;" parent="1" edge="1">
          <mxGeometry width="50" height="50" relative="1" as="geometry">
            <mxPoint x="480" y="240" as="sourcePoint" />
            <mxPoint x="560" y="240" as="targetPoint" />
          </mxGeometry>
        </mxCell>
        <mxCell id="-LEzGcHCE9Q_DhHC3iWU-52" value="" style="endArrow=none;html=1;rounded=0;" parent="1" edge="1">
          <mxGeometry width="50" height="50" relative="1" as="geometry">
            <mxPoint x="480" y="330" as="sourcePoint" />
            <mxPoint x="560" y="330" as="targetPoint" />
          </mxGeometry>
        </mxCell>
        <mxCell id="-LEzGcHCE9Q_DhHC3iWU-53" value="" style="endArrow=none;html=1;rounded=0;" parent="1" edge="1">
          <mxGeometry width="50" height="50" relative="1" as="geometry">
            <mxPoint x="480" y="360" as="sourcePoint" />
            <mxPoint x="560" y="360" as="targetPoint" />
          </mxGeometry>
        </mxCell>
        <mxCell id="-LEzGcHCE9Q_DhHC3iWU-54" value="" style="endArrow=none;html=1;rounded=0;" parent="1" edge="1">
          <mxGeometry width="50" height="50" relative="1" as="geometry">
            <mxPoint x="480" y="470" as="sourcePoint" />
            <mxPoint x="560" y="470" as="targetPoint" />
          </mxGeometry>
        </mxCell>
        <mxCell id="-LEzGcHCE9Q_DhHC3iWU-55" value="" style="endArrow=none;html=1;rounded=0;" parent="1" edge="1">
          <mxGeometry width="50" height="50" relative="1" as="geometry">
            <mxPoint x="480" y="440" as="sourcePoint" />
            <mxPoint x="560" y="440" as="targetPoint" />
          </mxGeometry>
        </mxCell>
        <mxCell id="-LEzGcHCE9Q_DhHC3iWU-56" value="userMst&lt;div&gt;&lt;br&gt;&lt;/div&gt;" style="text;html=1;align=center;verticalAlign=middle;resizable=0;points=[];autosize=1;strokeColor=none;fillColor=none;" parent="1" vertex="1">
          <mxGeometry x="485" y="100" width="70" height="40" as="geometry" />
        </mxCell>
        <mxCell id="-LEzGcHCE9Q_DhHC3iWU-57" value="userMst" style="text;html=1;align=center;verticalAlign=middle;resizable=0;points=[];autosize=1;strokeColor=none;fillColor=none;" parent="1" vertex="1">
          <mxGeometry x="485" y="205" width="70" height="30" as="geometry" />
        </mxCell>
        <mxCell id="-LEzGcHCE9Q_DhHC3iWU-58" value="userMst" style="text;html=1;align=center;verticalAlign=middle;resizable=0;points=[];autosize=1;strokeColor=none;fillColor=none;" parent="1" vertex="1">
          <mxGeometry x="485" y="330" width="70" height="30" as="geometry" />
        </mxCell>
        <mxCell id="-LEzGcHCE9Q_DhHC3iWU-59" value="userMst" style="text;html=1;align=center;verticalAlign=middle;resizable=0;points=[];autosize=1;strokeColor=none;fillColor=none;" parent="1" vertex="1">
          <mxGeometry x="485" y="445" width="70" height="30" as="geometry" />
        </mxCell>
        <mxCell id="-LEzGcHCE9Q_DhHC3iWU-60" value="" style="endArrow=classic;html=1;rounded=0;" parent="1" edge="1">
          <mxGeometry width="50" height="50" relative="1" as="geometry">
            <mxPoint x="390" y="100" as="sourcePoint" />
            <mxPoint x="450" y="100" as="targetPoint" />
          </mxGeometry>
        </mxCell>
        <mxCell id="-LEzGcHCE9Q_DhHC3iWU-61" value="" style="endArrow=classic;html=1;rounded=0;" parent="1" edge="1">
          <mxGeometry width="50" height="50" relative="1" as="geometry">
            <mxPoint x="455" y="112.5" as="sourcePoint" />
            <mxPoint x="395" y="112.5" as="targetPoint" />
          </mxGeometry>
        </mxCell>
        <mxCell id="-LEzGcHCE9Q_DhHC3iWU-62" value="" style="endArrow=classic;html=1;rounded=0;" parent="1" edge="1">
          <mxGeometry width="50" height="50" relative="1" as="geometry">
            <mxPoint x="455" y="230" as="sourcePoint" />
            <mxPoint x="395" y="230" as="targetPoint" />
          </mxGeometry>
        </mxCell>
        <mxCell id="-LEzGcHCE9Q_DhHC3iWU-63" value="" style="endArrow=classic;html=1;rounded=0;" parent="1" edge="1">
          <mxGeometry width="50" height="50" relative="1" as="geometry">
            <mxPoint x="395" y="219.5" as="sourcePoint" />
            <mxPoint x="455" y="219.5" as="targetPoint" />
          </mxGeometry>
        </mxCell>
        <mxCell id="-LEzGcHCE9Q_DhHC3iWU-64" value="" style="endArrow=classic;html=1;rounded=0;" parent="1" edge="1">
          <mxGeometry width="50" height="50" relative="1" as="geometry">
            <mxPoint x="390" y="339.5" as="sourcePoint" />
            <mxPoint x="450" y="339.5" as="targetPoint" />
          </mxGeometry>
        </mxCell>
        <mxCell id="-LEzGcHCE9Q_DhHC3iWU-65" value="" style="endArrow=classic;html=1;rounded=0;" parent="1" edge="1">
          <mxGeometry width="50" height="50" relative="1" as="geometry">
            <mxPoint x="455" y="470" as="sourcePoint" />
            <mxPoint x="395" y="470" as="targetPoint" />
          </mxGeometry>
        </mxCell>
        <mxCell id="-LEzGcHCE9Q_DhHC3iWU-66" value="" style="endArrow=classic;html=1;rounded=0;" parent="1" edge="1">
          <mxGeometry width="50" height="50" relative="1" as="geometry">
            <mxPoint x="395" y="459.5" as="sourcePoint" />
            <mxPoint x="455" y="459.5" as="targetPoint" />
          </mxGeometry>
        </mxCell>
        <mxCell id="-LEzGcHCE9Q_DhHC3iWU-67" value="" style="endArrow=classic;html=1;rounded=0;" parent="1" edge="1">
          <mxGeometry width="50" height="50" relative="1" as="geometry">
            <mxPoint x="455" y="350" as="sourcePoint" />
            <mxPoint x="395" y="350" as="targetPoint" />
          </mxGeometry>
        </mxCell>
        <mxCell id="-LEzGcHCE9Q_DhHC3iWU-73" style="edgeStyle=orthogonalEdgeStyle;rounded=0;orthogonalLoop=1;jettySize=auto;html=1;exitX=0.5;exitY=1;exitDx=0;exitDy=0;entryX=0.5;entryY=0;entryDx=0;entryDy=0;" parent="1" source="-LEzGcHCE9Q_DhHC3iWU-69" target="-LEzGcHCE9Q_DhHC3iWU-71" edge="1">
          <mxGeometry relative="1" as="geometry" />
        </mxCell>
        <mxCell id="-LEzGcHCE9Q_DhHC3iWU-69" value="view item" style="ellipse;whiteSpace=wrap;html=1;aspect=fixed;" parent="1" vertex="1">
          <mxGeometry x="260" y="690" width="80" height="80" as="geometry" />
        </mxCell>
        <mxCell id="-LEzGcHCE9Q_DhHC3iWU-70" value="confirm" style="ellipse;whiteSpace=wrap;html=1;aspect=fixed;" parent="1" vertex="1">
          <mxGeometry x="260" y="940" width="80" height="80" as="geometry" />
        </mxCell>
        <mxCell id="-LEzGcHCE9Q_DhHC3iWU-74" style="edgeStyle=orthogonalEdgeStyle;rounded=0;orthogonalLoop=1;jettySize=auto;html=1;exitX=0.5;exitY=1;exitDx=0;exitDy=0;entryX=0.5;entryY=0;entryDx=0;entryDy=0;" parent="1" source="-LEzGcHCE9Q_DhHC3iWU-71" target="-LEzGcHCE9Q_DhHC3iWU-70" edge="1">
          <mxGeometry relative="1" as="geometry" />
        </mxCell>
        <mxCell id="-LEzGcHCE9Q_DhHC3iWU-71" value="add to cart" style="ellipse;whiteSpace=wrap;html=1;aspect=fixed;" parent="1" vertex="1">
          <mxGeometry x="260" y="820" width="80" height="80" as="geometry" />
        </mxCell>
        <mxCell id="-LEzGcHCE9Q_DhHC3iWU-77" value="" style="endArrow=none;html=1;rounded=0;" parent="1" edge="1">
          <mxGeometry width="50" height="50" relative="1" as="geometry">
            <mxPoint x="480" y="590" as="sourcePoint" />
            <mxPoint x="560" y="590" as="targetPoint" />
          </mxGeometry>
        </mxCell>
        <mxCell id="-LEzGcHCE9Q_DhHC3iWU-78" value="" style="endArrow=none;html=1;rounded=0;" parent="1" edge="1">
          <mxGeometry width="50" height="50" relative="1" as="geometry">
            <mxPoint x="480" y="620" as="sourcePoint" />
            <mxPoint x="560" y="620" as="targetPoint" />
          </mxGeometry>
        </mxCell>
        <mxCell id="-LEzGcHCE9Q_DhHC3iWU-79" value="" style="endArrow=none;html=1;rounded=0;" parent="1" edge="1">
          <mxGeometry width="50" height="50" relative="1" as="geometry">
            <mxPoint x="480" y="720" as="sourcePoint" />
            <mxPoint x="560" y="720" as="targetPoint" />
          </mxGeometry>
        </mxCell>
        <mxCell id="-LEzGcHCE9Q_DhHC3iWU-80" value="" style="endArrow=none;html=1;rounded=0;" parent="1" edge="1">
          <mxGeometry width="50" height="50" relative="1" as="geometry">
            <mxPoint x="480" y="750" as="sourcePoint" />
            <mxPoint x="560" y="750" as="targetPoint" />
          </mxGeometry>
        </mxCell>
        <mxCell id="-LEzGcHCE9Q_DhHC3iWU-81" value="" style="endArrow=none;html=1;rounded=0;" parent="1" edge="1">
          <mxGeometry width="50" height="50" relative="1" as="geometry">
            <mxPoint x="480" y="850" as="sourcePoint" />
            <mxPoint x="560" y="850" as="targetPoint" />
          </mxGeometry>
        </mxCell>
        <mxCell id="-LEzGcHCE9Q_DhHC3iWU-82" value="" style="endArrow=none;html=1;rounded=0;" parent="1" edge="1">
          <mxGeometry width="50" height="50" relative="1" as="geometry">
            <mxPoint x="480" y="880" as="sourcePoint" />
            <mxPoint x="560" y="880" as="targetPoint" />
          </mxGeometry>
        </mxCell>
        <mxCell id="-LEzGcHCE9Q_DhHC3iWU-83" value="" style="endArrow=none;html=1;rounded=0;" parent="1" edge="1">
          <mxGeometry width="50" height="50" relative="1" as="geometry">
            <mxPoint x="480" y="970" as="sourcePoint" />
            <mxPoint x="560" y="970" as="targetPoint" />
          </mxGeometry>
        </mxCell>
        <mxCell id="-LEzGcHCE9Q_DhHC3iWU-84" value="" style="endArrow=none;html=1;rounded=0;" parent="1" edge="1">
          <mxGeometry width="50" height="50" relative="1" as="geometry">
            <mxPoint x="480" y="1000" as="sourcePoint" />
            <mxPoint x="560" y="1000" as="targetPoint" />
          </mxGeometry>
        </mxCell>
        <mxCell id="-LEzGcHCE9Q_DhHC3iWU-85" value="&amp;nbsp; &amp;nbsp; &amp;nbsp; &amp;nbsp; &amp;nbsp; userMst" style="text;html=1;align=center;verticalAlign=middle;resizable=0;points=[];autosize=1;strokeColor=none;fillColor=none;" parent="1" vertex="1">
          <mxGeometry x="450" y="588" width="100" height="30" as="geometry" />
        </mxCell>
        <mxCell id="-LEzGcHCE9Q_DhHC3iWU-86" value="itemMst" style="text;html=1;align=center;verticalAlign=middle;resizable=0;points=[];autosize=1;strokeColor=none;fillColor=none;" parent="1" vertex="1">
          <mxGeometry x="485" y="718" width="70" height="30" as="geometry" />
        </mxCell>
        <mxCell id="-LEzGcHCE9Q_DhHC3iWU-87" value="orderMst" style="text;html=1;align=center;verticalAlign=middle;resizable=0;points=[];autosize=1;strokeColor=none;fillColor=none;" parent="1" vertex="1">
          <mxGeometry x="485" y="848" width="70" height="30" as="geometry" />
        </mxCell>
        <mxCell id="-LEzGcHCE9Q_DhHC3iWU-89" value="orderMst" style="text;html=1;align=center;verticalAlign=middle;resizable=0;points=[];autosize=1;strokeColor=none;fillColor=none;" parent="1" vertex="1">
          <mxGeometry x="485" y="968" width="70" height="30" as="geometry" />
        </mxCell>
        <mxCell id="-LEzGcHCE9Q_DhHC3iWU-90" value="" style="endArrow=classic;html=1;rounded=0;" parent="1" edge="1">
          <mxGeometry width="50" height="50" relative="1" as="geometry">
            <mxPoint x="380" y="602.5" as="sourcePoint" />
            <mxPoint x="440" y="602.5" as="targetPoint" />
          </mxGeometry>
        </mxCell>
        <mxCell id="-LEzGcHCE9Q_DhHC3iWU-91" value="" style="endArrow=classic;html=1;rounded=0;" parent="1" edge="1">
          <mxGeometry width="50" height="50" relative="1" as="geometry">
            <mxPoint x="440" y="609.5" as="sourcePoint" />
            <mxPoint x="380" y="609.5" as="targetPoint" />
          </mxGeometry>
        </mxCell>
        <mxCell id="-LEzGcHCE9Q_DhHC3iWU-92" value="" style="endArrow=classic;html=1;rounded=0;" parent="1" edge="1">
          <mxGeometry width="50" height="50" relative="1" as="geometry">
            <mxPoint x="380" y="730" as="sourcePoint" />
            <mxPoint x="440" y="730" as="targetPoint" />
          </mxGeometry>
        </mxCell>
        <mxCell id="-LEzGcHCE9Q_DhHC3iWU-93" value="" style="endArrow=classic;html=1;rounded=0;" parent="1" edge="1">
          <mxGeometry width="50" height="50" relative="1" as="geometry">
            <mxPoint x="440" y="740" as="sourcePoint" />
            <mxPoint x="380" y="740" as="targetPoint" />
          </mxGeometry>
        </mxCell>
        <mxCell id="-LEzGcHCE9Q_DhHC3iWU-94" value="" style="endArrow=classic;html=1;rounded=0;" parent="1" edge="1">
          <mxGeometry width="50" height="50" relative="1" as="geometry">
            <mxPoint x="380" y="860" as="sourcePoint" />
            <mxPoint x="440" y="860" as="targetPoint" />
          </mxGeometry>
        </mxCell>
        <mxCell id="-LEzGcHCE9Q_DhHC3iWU-95" value="" style="endArrow=classic;html=1;rounded=0;" parent="1" edge="1">
          <mxGeometry width="50" height="50" relative="1" as="geometry">
            <mxPoint x="440" y="870" as="sourcePoint" />
            <mxPoint x="380" y="870" as="targetPoint" />
          </mxGeometry>
        </mxCell>
        <mxCell id="-LEzGcHCE9Q_DhHC3iWU-96" value="" style="endArrow=classic;html=1;rounded=0;" parent="1" edge="1">
          <mxGeometry width="50" height="50" relative="1" as="geometry">
            <mxPoint x="390" y="980" as="sourcePoint" />
            <mxPoint x="440" y="980" as="targetPoint" />
          </mxGeometry>
        </mxCell>
        <mxCell id="-LEzGcHCE9Q_DhHC3iWU-97" value="" style="endArrow=classic;html=1;rounded=0;" parent="1" edge="1">
          <mxGeometry width="50" height="50" relative="1" as="geometry">
            <mxPoint x="440" y="990" as="sourcePoint" />
            <mxPoint x="390" y="990" as="targetPoint" />
          </mxGeometry>
        </mxCell>
        <mxCell id="y4NYzXlv5N6nnEXKJzxy-1" value="request for login" style="text;html=1;align=center;verticalAlign=middle;resizable=0;points=[];autosize=1;strokeColor=none;fillColor=none;" vertex="1" parent="1">
          <mxGeometry x="165" y="78" width="110" height="30" as="geometry" />
        </mxCell>
        <mxCell id="y4NYzXlv5N6nnEXKJzxy-2" value="response" style="text;html=1;align=center;verticalAlign=middle;resizable=0;points=[];autosize=1;strokeColor=none;fillColor=none;" vertex="1" parent="1">
          <mxGeometry x="175" y="108" width="70" height="30" as="geometry" />
        </mxCell>
        <mxCell id="y4NYzXlv5N6nnEXKJzxy-3" value="check detail" style="text;html=1;align=center;verticalAlign=middle;resizable=0;points=[];autosize=1;strokeColor=none;fillColor=none;" vertex="1" parent="1">
          <mxGeometry x="365" y="68" width="90" height="30" as="geometry" />
        </mxCell>
        <mxCell id="y4NYzXlv5N6nnEXKJzxy-4" value="reply" style="text;html=1;align=center;verticalAlign=middle;resizable=0;points=[];autosize=1;strokeColor=none;fillColor=none;" vertex="1" parent="1">
          <mxGeometry x="405" y="108" width="50" height="30" as="geometry" />
        </mxCell>
        <mxCell id="y4NYzXlv5N6nnEXKJzxy-5" value="request for view" style="text;html=1;align=center;verticalAlign=middle;resizable=0;points=[];autosize=1;strokeColor=none;fillColor=none;" vertex="1" parent="1">
          <mxGeometry x="365" y="198" width="110" height="30" as="geometry" />
        </mxCell>
        <mxCell id="y4NYzXlv5N6nnEXKJzxy-6" value="reply" style="text;html=1;align=center;verticalAlign=middle;resizable=0;points=[];autosize=1;strokeColor=none;fillColor=none;" vertex="1" parent="1">
          <mxGeometry x="395" y="228" width="50" height="30" as="geometry" />
        </mxCell>
        <mxCell id="y4NYzXlv5N6nnEXKJzxy-7" value="update password" style="text;html=1;align=center;verticalAlign=middle;resizable=0;points=[];autosize=1;strokeColor=none;fillColor=none;" vertex="1" parent="1">
          <mxGeometry x="365" y="308" width="110" height="30" as="geometry" />
        </mxCell>
        <mxCell id="y4NYzXlv5N6nnEXKJzxy-8" value="reply" style="text;html=1;align=center;verticalAlign=middle;resizable=0;points=[];autosize=1;strokeColor=none;fillColor=none;" vertex="1" parent="1">
          <mxGeometry x="395" y="348" width="50" height="30" as="geometry" />
        </mxCell>
        <mxCell id="y4NYzXlv5N6nnEXKJzxy-9" value="update account" style="text;html=1;align=center;verticalAlign=middle;resizable=0;points=[];autosize=1;strokeColor=none;fillColor=none;" vertex="1" parent="1">
          <mxGeometry x="355" y="428" width="110" height="30" as="geometry" />
        </mxCell>
        <mxCell id="y4NYzXlv5N6nnEXKJzxy-11" value="reply&lt;div&gt;&lt;br&gt;&lt;/div&gt;" style="text;html=1;align=center;verticalAlign=middle;resizable=0;points=[];autosize=1;strokeColor=none;fillColor=none;" vertex="1" parent="1">
          <mxGeometry x="405" y="463" width="50" height="40" as="geometry" />
        </mxCell>
        <mxCell id="y4NYzXlv5N6nnEXKJzxy-12" value="request to login" style="text;html=1;align=center;verticalAlign=middle;resizable=0;points=[];autosize=1;strokeColor=none;fillColor=none;" vertex="1" parent="1">
          <mxGeometry x="155" y="588" width="110" height="30" as="geometry" />
        </mxCell>
        <mxCell id="y4NYzXlv5N6nnEXKJzxy-13" value="response" style="text;html=1;align=center;verticalAlign=middle;resizable=0;points=[];autosize=1;strokeColor=none;fillColor=none;" vertex="1" parent="1">
          <mxGeometry x="175" y="610" width="70" height="30" as="geometry" />
        </mxCell>
        <mxCell id="y4NYzXlv5N6nnEXKJzxy-14" value="check detail" style="text;html=1;align=center;verticalAlign=middle;resizable=0;points=[];autosize=1;strokeColor=none;fillColor=none;" vertex="1" parent="1">
          <mxGeometry x="355" y="578" width="90" height="30" as="geometry" />
        </mxCell>
        <mxCell id="y4NYzXlv5N6nnEXKJzxy-15" value="reply" style="text;html=1;align=center;verticalAlign=middle;resizable=0;points=[];autosize=1;strokeColor=none;fillColor=none;" vertex="1" parent="1">
          <mxGeometry x="385" y="608" width="50" height="30" as="geometry" />
        </mxCell>
        <mxCell id="y4NYzXlv5N6nnEXKJzxy-16" value="request for view" style="text;html=1;align=center;verticalAlign=middle;resizable=0;points=[];autosize=1;strokeColor=none;fillColor=none;" vertex="1" parent="1">
          <mxGeometry x="345" y="698" width="110" height="30" as="geometry" />
        </mxCell>
        <mxCell id="y4NYzXlv5N6nnEXKJzxy-17" value="reply" style="text;html=1;align=center;verticalAlign=middle;resizable=0;points=[];autosize=1;strokeColor=none;fillColor=none;" vertex="1" parent="1">
          <mxGeometry x="385" y="728" width="50" height="30" as="geometry" />
        </mxCell>
        <mxCell id="y4NYzXlv5N6nnEXKJzxy-18" value="update password" style="text;html=1;align=center;verticalAlign=middle;resizable=0;points=[];autosize=1;strokeColor=none;fillColor=none;" vertex="1" parent="1">
          <mxGeometry x="345" y="838" width="110" height="30" as="geometry" />
        </mxCell>
        <mxCell id="y4NYzXlv5N6nnEXKJzxy-19" value="reply" style="text;html=1;align=center;verticalAlign=middle;resizable=0;points=[];autosize=1;strokeColor=none;fillColor=none;" vertex="1" parent="1">
          <mxGeometry x="395" y="868" width="50" height="30" as="geometry" />
        </mxCell>
        <mxCell id="y4NYzXlv5N6nnEXKJzxy-20" value="edit profile" style="text;html=1;align=center;verticalAlign=middle;resizable=0;points=[];autosize=1;strokeColor=none;fillColor=none;" vertex="1" parent="1">
          <mxGeometry x="370" y="958" width="80" height="30" as="geometry" />
        </mxCell>
        <mxCell id="y4NYzXlv5N6nnEXKJzxy-21" value="reply&lt;div&gt;&lt;br&gt;&lt;/div&gt;" style="text;html=1;align=center;verticalAlign=middle;resizable=0;points=[];autosize=1;strokeColor=none;fillColor=none;" vertex="1" parent="1">
          <mxGeometry x="385" y="983" width="50" height="40" as="geometry" />
        </mxCell>
      </root>
    </mxGraphModel>
  </diagram>
  <diagram id="cq0smSbjyeoAjECUC9uu" name="Page-4">
    <mxGraphModel dx="880" dy="468" grid="1" gridSize="10" guides="1" tooltips="1" connect="1" arrows="1" fold="1" page="1" pageScale="1" pageWidth="850" pageHeight="1100" math="0" shadow="0">
      <root>
        <mxCell id="0" />
        <mxCell id="1" parent="0" />
        <mxCell id="2J006IKmeELXGWlCS6rQ-1" value="system user" style="shape=umlActor;verticalLabelPosition=bottom;verticalAlign=top;html=1;outlineConnect=0;" parent="1" vertex="1">
          <mxGeometry x="20" y="360" width="30" height="60" as="geometry" />
        </mxCell>
        <mxCell id="2J006IKmeELXGWlCS6rQ-21" style="edgeStyle=orthogonalEdgeStyle;rounded=0;orthogonalLoop=1;jettySize=auto;html=1;exitX=0.5;exitY=0.5;exitDx=0;exitDy=0;exitPerimeter=0;" parent="1" source="2J006IKmeELXGWlCS6rQ-2" edge="1">
          <mxGeometry relative="1" as="geometry">
            <mxPoint x="35" y="70" as="targetPoint" />
          </mxGeometry>
        </mxCell>
        <mxCell id="2J006IKmeELXGWlCS6rQ-2" value="super admin" style="shape=umlActor;verticalLabelPosition=bottom;verticalAlign=top;html=1;outlineConnect=0;" parent="1" vertex="1">
          <mxGeometry x="20" y="40" width="30" height="60" as="geometry" />
        </mxCell>
        <mxCell id="2J006IKmeELXGWlCS6rQ-5" value="manage users and full application" style="ellipse;whiteSpace=wrap;html=1;" parent="1" vertex="1">
          <mxGeometry x="80" width="140" height="30" as="geometry" />
        </mxCell>
        <mxCell id="2J006IKmeELXGWlCS6rQ-6" value="manage payment" style="ellipse;whiteSpace=wrap;html=1;" parent="1" vertex="1">
          <mxGeometry x="80" y="40" width="140" height="30" as="geometry" />
        </mxCell>
        <mxCell id="2J006IKmeELXGWlCS6rQ-7" value="manage payment mode" style="ellipse;whiteSpace=wrap;html=1;" parent="1" vertex="1">
          <mxGeometry x="90" y="80" width="140" height="30" as="geometry" />
        </mxCell>
        <mxCell id="2J006IKmeELXGWlCS6rQ-8" value="manage bill" style="ellipse;whiteSpace=wrap;html=1;" parent="1" vertex="1">
          <mxGeometry x="110" y="340" width="140" height="30" as="geometry" />
        </mxCell>
        <mxCell id="2J006IKmeELXGWlCS6rQ-9" value="manage reciept" style="ellipse;whiteSpace=wrap;html=1;" parent="1" vertex="1">
          <mxGeometry x="110" y="380" width="140" height="30" as="geometry" />
        </mxCell>
        <mxCell id="2J006IKmeELXGWlCS6rQ-10" value="manage account" style="ellipse;whiteSpace=wrap;html=1;" parent="1" vertex="1">
          <mxGeometry x="110" y="420" width="140" height="30" as="geometry" />
        </mxCell>
        <mxCell id="2J006IKmeELXGWlCS6rQ-11" value="login and logout from system" style="ellipse;whiteSpace=wrap;html=1;" parent="1" vertex="1">
          <mxGeometry x="270" y="180" width="140" height="30" as="geometry" />
        </mxCell>
        <mxCell id="2J006IKmeELXGWlCS6rQ-12" value="update my profile" style="ellipse;whiteSpace=wrap;html=1;" parent="1" vertex="1">
          <mxGeometry x="270" y="220" width="140" height="30" as="geometry" />
        </mxCell>
        <mxCell id="2J006IKmeELXGWlCS6rQ-13" value="change account password" style="ellipse;whiteSpace=wrap;html=1;" parent="1" vertex="1">
          <mxGeometry x="270" y="260" width="140" height="30" as="geometry" />
        </mxCell>
        <mxCell id="2J006IKmeELXGWlCS6rQ-14" value="view bills&amp;nbsp;" style="ellipse;whiteSpace=wrap;html=1;" parent="1" vertex="1">
          <mxGeometry x="490" y="340" width="140" height="30" as="geometry" />
        </mxCell>
        <mxCell id="2J006IKmeELXGWlCS6rQ-15" value="search bills&amp;nbsp;" style="ellipse;whiteSpace=wrap;html=1;" parent="1" vertex="1">
          <mxGeometry x="490" y="380" width="140" height="30" as="geometry" />
        </mxCell>
        <mxCell id="2J006IKmeELXGWlCS6rQ-16" value="make payments" style="ellipse;whiteSpace=wrap;html=1;" parent="1" vertex="1">
          <mxGeometry x="490" y="420" width="140" height="30" as="geometry" />
        </mxCell>
        <mxCell id="2J006IKmeELXGWlCS6rQ-17" value="check payment" style="ellipse;whiteSpace=wrap;html=1;" parent="1" vertex="1">
          <mxGeometry x="490" y="80" width="140" height="30" as="geometry" />
        </mxCell>
        <mxCell id="2J006IKmeELXGWlCS6rQ-18" value="send invoice to customer" style="ellipse;whiteSpace=wrap;html=1;" parent="1" vertex="1">
          <mxGeometry x="490" y="40" width="140" height="30" as="geometry" />
        </mxCell>
        <mxCell id="2J006IKmeELXGWlCS6rQ-19" value="check bills" style="ellipse;whiteSpace=wrap;html=1;" parent="1" vertex="1">
          <mxGeometry x="490" width="140" height="30" as="geometry" />
        </mxCell>
        <mxCell id="2J006IKmeELXGWlCS6rQ-20" style="edgeStyle=orthogonalEdgeStyle;rounded=0;orthogonalLoop=1;jettySize=auto;html=1;exitX=0.5;exitY=1;exitDx=0;exitDy=0;" parent="1" source="2J006IKmeELXGWlCS6rQ-10" target="2J006IKmeELXGWlCS6rQ-10" edge="1">
          <mxGeometry relative="1" as="geometry" />
        </mxCell>
        <mxCell id="2J006IKmeELXGWlCS6rQ-23" style="edgeStyle=orthogonalEdgeStyle;rounded=0;orthogonalLoop=1;jettySize=auto;html=1;exitX=0.5;exitY=1;exitDx=0;exitDy=0;" parent="1" source="2J006IKmeELXGWlCS6rQ-10" target="2J006IKmeELXGWlCS6rQ-10" edge="1">
          <mxGeometry relative="1" as="geometry" />
        </mxCell>
        <mxCell id="2J006IKmeELXGWlCS6rQ-25" value="customer" style="shape=umlActor;verticalLabelPosition=bottom;verticalAlign=top;html=1;outlineConnect=0;" parent="1" vertex="1">
          <mxGeometry x="700" y="360" width="30" height="60" as="geometry" />
        </mxCell>
        <mxCell id="2J006IKmeELXGWlCS6rQ-26" value="agent" style="shape=umlActor;verticalLabelPosition=bottom;verticalAlign=top;html=1;outlineConnect=0;" parent="1" vertex="1">
          <mxGeometry x="690" y="50" width="30" height="60" as="geometry" />
        </mxCell>
        <mxCell id="l4aO4HOKo9r9YICwJxo8-2" value="" style="endArrow=none;html=1;rounded=0;exitX=1;exitY=0.3333333333333333;exitDx=0;exitDy=0;exitPerimeter=0;" edge="1" parent="1" source="2J006IKmeELXGWlCS6rQ-2">
          <mxGeometry width="50" height="50" relative="1" as="geometry">
            <mxPoint x="400" y="180" as="sourcePoint" />
            <mxPoint x="85" y="24" as="targetPoint" />
          </mxGeometry>
        </mxCell>
        <mxCell id="l4aO4HOKo9r9YICwJxo8-3" value="" style="endArrow=none;html=1;rounded=0;exitX=1;exitY=0.3333333333333333;exitDx=0;exitDy=0;exitPerimeter=0;entryX=0;entryY=0.5;entryDx=0;entryDy=0;" edge="1" parent="1" source="2J006IKmeELXGWlCS6rQ-2" target="2J006IKmeELXGWlCS6rQ-6">
          <mxGeometry width="50" height="50" relative="1" as="geometry">
            <mxPoint x="400" y="180" as="sourcePoint" />
            <mxPoint x="450" y="130" as="targetPoint" />
          </mxGeometry>
        </mxCell>
        <mxCell id="l4aO4HOKo9r9YICwJxo8-4" value="" style="endArrow=none;html=1;rounded=0;entryX=1;entryY=0.3333333333333333;entryDx=0;entryDy=0;entryPerimeter=0;exitX=0.071;exitY=0.333;exitDx=0;exitDy=0;exitPerimeter=0;" edge="1" parent="1" source="2J006IKmeELXGWlCS6rQ-7" target="2J006IKmeELXGWlCS6rQ-2">
          <mxGeometry width="50" height="50" relative="1" as="geometry">
            <mxPoint x="400" y="180" as="sourcePoint" />
            <mxPoint x="450" y="130" as="targetPoint" />
          </mxGeometry>
        </mxCell>
        <mxCell id="l4aO4HOKo9r9YICwJxo8-5" value="" style="endArrow=none;html=1;rounded=0;entryX=0;entryY=0.3333333333333333;entryDx=0;entryDy=0;entryPerimeter=0;exitX=0.929;exitY=0.667;exitDx=0;exitDy=0;exitPerimeter=0;" edge="1" parent="1" source="2J006IKmeELXGWlCS6rQ-19" target="2J006IKmeELXGWlCS6rQ-26">
          <mxGeometry width="50" height="50" relative="1" as="geometry">
            <mxPoint x="400" y="180" as="sourcePoint" />
            <mxPoint x="450" y="130" as="targetPoint" />
          </mxGeometry>
        </mxCell>
        <mxCell id="l4aO4HOKo9r9YICwJxo8-6" value="" style="endArrow=none;html=1;rounded=0;exitX=1;exitY=0.5;exitDx=0;exitDy=0;" edge="1" parent="1" source="2J006IKmeELXGWlCS6rQ-18">
          <mxGeometry width="50" height="50" relative="1" as="geometry">
            <mxPoint x="400" y="180" as="sourcePoint" />
            <mxPoint x="690" y="70" as="targetPoint" />
          </mxGeometry>
        </mxCell>
        <mxCell id="l4aO4HOKo9r9YICwJxo8-7" value="" style="endArrow=none;html=1;rounded=0;exitX=1;exitY=0.5;exitDx=0;exitDy=0;" edge="1" parent="1" source="2J006IKmeELXGWlCS6rQ-17">
          <mxGeometry width="50" height="50" relative="1" as="geometry">
            <mxPoint x="400" y="180" as="sourcePoint" />
            <mxPoint x="690" y="70" as="targetPoint" />
          </mxGeometry>
        </mxCell>
        <mxCell id="l4aO4HOKo9r9YICwJxo8-8" value="" style="endArrow=none;html=1;rounded=0;entryX=0;entryY=0.5;entryDx=0;entryDy=0;" edge="1" parent="1" target="2J006IKmeELXGWlCS6rQ-8">
          <mxGeometry width="50" height="50" relative="1" as="geometry">
            <mxPoint x="50" y="380" as="sourcePoint" />
            <mxPoint x="100" y="330" as="targetPoint" />
          </mxGeometry>
        </mxCell>
        <mxCell id="l4aO4HOKo9r9YICwJxo8-9" value="" style="endArrow=none;html=1;rounded=0;entryX=0;entryY=0.5;entryDx=0;entryDy=0;" edge="1" parent="1" target="2J006IKmeELXGWlCS6rQ-9">
          <mxGeometry width="50" height="50" relative="1" as="geometry">
            <mxPoint x="50" y="380" as="sourcePoint" />
            <mxPoint x="100" y="330" as="targetPoint" />
          </mxGeometry>
        </mxCell>
        <mxCell id="l4aO4HOKo9r9YICwJxo8-10" value="" style="endArrow=none;html=1;rounded=0;entryX=0;entryY=0.5;entryDx=0;entryDy=0;" edge="1" parent="1" target="2J006IKmeELXGWlCS6rQ-10">
          <mxGeometry width="50" height="50" relative="1" as="geometry">
            <mxPoint x="50" y="380" as="sourcePoint" />
            <mxPoint x="100" y="330" as="targetPoint" />
          </mxGeometry>
        </mxCell>
        <mxCell id="l4aO4HOKo9r9YICwJxo8-11" value="" style="endArrow=none;html=1;rounded=0;" edge="1" parent="1">
          <mxGeometry width="50" height="50" relative="1" as="geometry">
            <mxPoint x="630" y="430" as="sourcePoint" />
            <mxPoint x="690" y="380" as="targetPoint" />
            <Array as="points">
              <mxPoint x="650" y="410" />
            </Array>
          </mxGeometry>
        </mxCell>
        <mxCell id="l4aO4HOKo9r9YICwJxo8-12" value="" style="endArrow=none;html=1;rounded=0;exitX=1;exitY=0.5;exitDx=0;exitDy=0;" edge="1" parent="1" source="2J006IKmeELXGWlCS6rQ-15">
          <mxGeometry width="50" height="50" relative="1" as="geometry">
            <mxPoint x="650" y="430" as="sourcePoint" />
            <mxPoint x="700" y="380" as="targetPoint" />
          </mxGeometry>
        </mxCell>
        <mxCell id="l4aO4HOKo9r9YICwJxo8-13" value="" style="endArrow=none;html=1;rounded=0;exitX=1;exitY=0.5;exitDx=0;exitDy=0;" edge="1" parent="1" source="2J006IKmeELXGWlCS6rQ-14">
          <mxGeometry width="50" height="50" relative="1" as="geometry">
            <mxPoint x="650" y="390" as="sourcePoint" />
            <mxPoint x="690" y="380" as="targetPoint" />
          </mxGeometry>
        </mxCell>
        <mxCell id="l4aO4HOKo9r9YICwJxo8-14" value="" style="endArrow=none;html=1;rounded=0;" edge="1" parent="1">
          <mxGeometry width="50" height="50" relative="1" as="geometry">
            <mxPoint x="50" y="380" as="sourcePoint" />
            <mxPoint x="270" y="230" as="targetPoint" />
          </mxGeometry>
        </mxCell>
        <mxCell id="l4aO4HOKo9r9YICwJxo8-15" value="" style="endArrow=none;html=1;rounded=0;" edge="1" parent="1" source="2J006IKmeELXGWlCS6rQ-1">
          <mxGeometry width="50" height="50" relative="1" as="geometry">
            <mxPoint x="60" y="340" as="sourcePoint" />
            <mxPoint x="270" y="200" as="targetPoint" />
          </mxGeometry>
        </mxCell>
        <mxCell id="l4aO4HOKo9r9YICwJxo8-16" value="" style="endArrow=none;html=1;rounded=0;" edge="1" parent="1">
          <mxGeometry width="50" height="50" relative="1" as="geometry">
            <mxPoint x="50" y="380" as="sourcePoint" />
            <mxPoint x="270" y="280" as="targetPoint" />
          </mxGeometry>
        </mxCell>
        <mxCell id="l4aO4HOKo9r9YICwJxo8-17" value="" style="endArrow=none;html=1;rounded=0;entryX=0;entryY=0.5;entryDx=0;entryDy=0;" edge="1" parent="1" target="2J006IKmeELXGWlCS6rQ-13">
          <mxGeometry width="50" height="50" relative="1" as="geometry">
            <mxPoint x="70" y="100" as="sourcePoint" />
            <mxPoint x="280" y="280" as="targetPoint" />
          </mxGeometry>
        </mxCell>
        <mxCell id="l4aO4HOKo9r9YICwJxo8-18" value="" style="endArrow=none;html=1;rounded=0;" edge="1" parent="1">
          <mxGeometry width="50" height="50" relative="1" as="geometry">
            <mxPoint x="70" y="100" as="sourcePoint" />
            <mxPoint x="270" y="230" as="targetPoint" />
          </mxGeometry>
        </mxCell>
        <mxCell id="l4aO4HOKo9r9YICwJxo8-19" value="" style="endArrow=none;html=1;rounded=0;entryX=0;entryY=0.5;entryDx=0;entryDy=0;" edge="1" parent="1" target="2J006IKmeELXGWlCS6rQ-11">
          <mxGeometry width="50" height="50" relative="1" as="geometry">
            <mxPoint x="70" y="100" as="sourcePoint" />
            <mxPoint x="270" y="200" as="targetPoint" />
          </mxGeometry>
        </mxCell>
        <mxCell id="l4aO4HOKo9r9YICwJxo8-21" value="" style="endArrow=none;html=1;rounded=0;entryX=0;entryY=0.5;entryDx=0;entryDy=0;" edge="1" parent="1" target="2J006IKmeELXGWlCS6rQ-6">
          <mxGeometry width="50" height="50" relative="1" as="geometry">
            <mxPoint x="50" y="380" as="sourcePoint" />
            <mxPoint x="100" y="290" as="targetPoint" />
          </mxGeometry>
        </mxCell>
        <mxCell id="l4aO4HOKo9r9YICwJxo8-23" value="" style="endArrow=none;html=1;rounded=0;" edge="1" parent="1">
          <mxGeometry width="50" height="50" relative="1" as="geometry">
            <mxPoint x="110" y="430" as="sourcePoint" />
            <mxPoint x="70" y="110" as="targetPoint" />
          </mxGeometry>
        </mxCell>
        <mxCell id="l4aO4HOKo9r9YICwJxo8-24" value="" style="endArrow=none;html=1;rounded=0;" edge="1" parent="1">
          <mxGeometry width="50" height="50" relative="1" as="geometry">
            <mxPoint x="80" y="110" as="sourcePoint" />
            <mxPoint x="110" y="350" as="targetPoint" />
          </mxGeometry>
        </mxCell>
        <mxCell id="l4aO4HOKo9r9YICwJxo8-25" value="" style="endArrow=none;html=1;rounded=0;" edge="1" parent="1">
          <mxGeometry width="50" height="50" relative="1" as="geometry">
            <mxPoint x="110" y="390" as="sourcePoint" />
            <mxPoint x="70" y="100" as="targetPoint" />
          </mxGeometry>
        </mxCell>
        <mxCell id="l4aO4HOKo9r9YICwJxo8-26" value="" style="endArrow=none;html=1;rounded=0;" edge="1" parent="1">
          <mxGeometry width="50" height="50" relative="1" as="geometry">
            <mxPoint x="690" y="380" as="sourcePoint" />
            <mxPoint x="410" y="190" as="targetPoint" />
          </mxGeometry>
        </mxCell>
        <mxCell id="l4aO4HOKo9r9YICwJxo8-27" value="" style="endArrow=none;html=1;rounded=0;" edge="1" parent="1">
          <mxGeometry width="50" height="50" relative="1" as="geometry">
            <mxPoint x="410" y="230" as="sourcePoint" />
            <mxPoint x="690" y="380" as="targetPoint" />
          </mxGeometry>
        </mxCell>
        <mxCell id="l4aO4HOKo9r9YICwJxo8-28" value="" style="endArrow=none;html=1;rounded=0;" edge="1" parent="1">
          <mxGeometry width="50" height="50" relative="1" as="geometry">
            <mxPoint x="410" y="280" as="sourcePoint" />
            <mxPoint x="690" y="380" as="targetPoint" />
          </mxGeometry>
        </mxCell>
        <mxCell id="l4aO4HOKo9r9YICwJxo8-29" value="" style="endArrow=none;html=1;rounded=0;" edge="1" parent="1">
          <mxGeometry width="50" height="50" relative="1" as="geometry">
            <mxPoint x="410" y="280" as="sourcePoint" />
            <mxPoint x="690" y="70" as="targetPoint" />
          </mxGeometry>
        </mxCell>
        <mxCell id="l4aO4HOKo9r9YICwJxo8-30" value="" style="endArrow=none;html=1;rounded=0;" edge="1" parent="1">
          <mxGeometry width="50" height="50" relative="1" as="geometry">
            <mxPoint x="410" y="190" as="sourcePoint" />
            <mxPoint x="690" y="70" as="targetPoint" />
          </mxGeometry>
        </mxCell>
        <mxCell id="l4aO4HOKo9r9YICwJxo8-31" value="" style="endArrow=none;html=1;rounded=0;exitX=1;exitY=0.5;exitDx=0;exitDy=0;" edge="1" parent="1" source="2J006IKmeELXGWlCS6rQ-12">
          <mxGeometry width="50" height="50" relative="1" as="geometry">
            <mxPoint x="640" y="120" as="sourcePoint" />
            <mxPoint x="690" y="70" as="targetPoint" />
          </mxGeometry>
        </mxCell>
      </root>
    </mxGraphModel>
  </diagram>
</mxfile>
